<?xml version="1.0" standalone="no"?>
<!DOCTYPE svg PUBLIC "-//W3C//DTD SVG 20010904//EN"
 "http://www.w3.org/TR/2001/REC-SVG-20010904/DTD/svg10.dtd">
<svg version="1.0" xmlns="http://www.w3.org/2000/svg"
 width="512.000000pt" height="512.000000pt" viewBox="0 0 512.000000 512.000000"
 preserveAspectRatio="xMidYMid meet">

<g transform="translate(0.000000,512.000000) scale(0.100000,-0.100000)"
fill="#000000" stroke="none">
<path d="M4600 2827 c-247 -201 -583 -374 -938 -482 l-104 -32 306 -310 c288
-293 306 -313 306 -348 0 -50 -36 -85 -87 -85 -36 0 -51 14 -384 346 l-347
347 -48 -7 c-48 -7 -55 -13 -364 -321 -346 -343 -346 -344 -427 -310 -26 11
-138 115 -343 319 -304 302 -305 303 -355 310 l-50 6 -346 -346 c-331 -331
-348 -346 -383 -346 -53 0 -86 33 -86 86 0 39 6 46 300 341 165 166 300 306
300 313 0 7 -8 12 -17 12 -33 0 -337 108 -463 164 -211 94 -428 228 -576 353
l-64 54 0 -798 c0 -753 1 -800 19 -838 20 -46 69 -91 109 -103 36 -9 3969 -9
4004 1 42 11 95 63 113 110 14 37 15 131 13 838 l-3 795 -85 -69z"/>
<path d="M2436 2059 c96 -96 130 -124 138 -115 6 6 62 64 124 127 l112 115
-250 0 -250 0 126 -127z"/>
</g>
</svg>
